<!DOCTYPE svg PUBLIC "-//W3C//DTD SVG 1.1//EN" "http://www.w3.org/Graphics/SVG/1.1/DTD/svg11.dtd">


<svg width="800px" height="800px" viewBox="0 0 24.00 24.00" fill="none" xmlns="http://www.w3.org/2000/svg">

<g id="SVGRepo_bgCarrier" stroke-width="0" transform="translate(6.72,6.72), scale(0.44)">

<path transform="translate(0, 0), scale(1.5)" fill="#000000" d="M9.166.33a2.25 2.25 0 00-2.332 0l-5.25 3.182A2.25 2.25 0 00.5 5.436v5.128a2.25 2.25 0 001.084 1.924l5.25 3.182a2.25 2.25 0 002.332 0l5.25-3.182a2.25 2.25 0 001.084-1.924V5.436a2.25 2.25 0 00-1.084-1.924L9.166.33z" strokewidth="0"/>

</g>

<g id="SVGRepo_tracerCarrier" stroke-linecap="round" stroke-linejoin="round"/>

<g id="SVGRepo_iconCarrier"> <path d="M4 7.5L11.6078 3.22062C11.7509 3.14014 11.8224 3.09991 11.8982 3.08414C11.9654 3.07019 12.0346 3.07019 12.1018 3.08414C12.1776 3.09991 12.2491 3.14014 12.3922 3.22062L20 7.5M4 7.5V16.0321C4 16.2025 4 16.2876 4.02499 16.3637C4.04711 16.431 4.08326 16.4928 4.13106 16.545C4.1851 16.6041 4.25933 16.6459 4.40779 16.7294L12 21M4 7.5L12 11.5M12 21L19.5922 16.7294C19.7407 16.6459 19.8149 16.6041 19.8689 16.545C19.9167 16.4928 19.9529 16.431 19.975 16.3637C20 16.2876 20 16.2025 20 16.0321V7.5M12 21V11.5M20 7.5L12 11.5" stroke="#000000" stroke-width="1.2" stroke-linecap="round" stroke-linejoin="round"/> </g>

</svg>